Coordinates
version=1
nRows=11
nColumns=42
inDegrees=yes

Units are S.I. units (second, meters, Newtons, ...)
If the header above contains a line with 'inDegrees', this indicates whether rotational values are in degrees (yes) or radians (no).

endheader
time	pelvis_tilt	pelvis_list	pelvis_rotation	pelvis_tx	pelvis_ty	pelvis_tz	hip_flexion_r	hip_adduction_r	hip_rotation_r	knee_angle_r	knee_adduction_r	knee_angle_r_beta	ankle_angle_r	subtalar_angle_r	mtp_angle_r	hip_flexion_l	hip_adduction_l	hip_rotation_l	knee_angle_l	knee_adduction_l	knee_angle_l_beta	ankle_angle_l	subtalar_angle_l	mtp_angle_l	lumbar_extension	lumbar_bending	lumbar_rotation	arm_flex_r	arm_add_r	arm_rot_r	elbow_flex_r	pro_sup_r	wrist_flex_r	wrist_dev_r	arm_flex_l	arm_add_l	arm_rot_l	elbow_flex_l	pro_sup_l	wrist_flex_l	wrist_dev_l
      3.00000000	      5.25350429	     -0.74172204	      3.56582254	     -0.19353861	      0.86997352	     -0.21725559	      8.65747670	     -5.89331901	     -2.07897709	     68.69294019	      1.40985004	      1.19891798	      2.55261611	      1.94344217	     -7.51636157	     14.25315026	      2.86335657	     -9.69929817	     36.82986315	     -6.24671625	      0.64280237	     19.31440661	     20.61824664	     -7.51636157	    -26.77984362	      3.92819965	     -2.86280583	      2.66920134	    -12.55600298	    -13.14736279	     51.26422512	     90.00000001	      0.00000000	      0.00000000	     16.11980718	    -11.00446368	     26.66064852	     48.52387143	     90.00000001	      0.00000000	      0.00000000
      3.01000000	      4.36706894	     -0.52175231	      3.23568684	     -0.19114689	      0.86736476	     -0.21783085	     11.40045156	     -6.13668923	     -0.47449560	     70.94400784	      2.12394661	      1.23820652	      3.75110846	      0.08192180	     -7.51551865	     15.44832126	      3.07342332	    -10.53284462	     37.63058386	     -6.51998661	      0.65677759	     20.19695609	     21.42117031	     -7.51551865	    -25.98584312	      3.49164041	     -2.81679797	      2.66931443	    -12.31364544	    -14.11998608	     50.61036154	     90.00000001	      0.00000000	      0.00000000	     16.23848662	    -11.09925820	     26.61267924	     48.22266938	     90.00000001	      0.00000000	      0.00000000
      3.02000000	      4.57093093	     -0.48560923	      3.20460649	     -0.18793815	      0.86694867	     -0.21867883	     12.44564281	     -6.02858194	     -0.44614943	     72.09589279	      1.67186911	      1.25831071	      4.55217884	     -0.26158923	     -7.51524928	     15.10168367	      3.06995623	    -10.62834888	     37.93639802	     -6.44994090	      0.66211505	     20.57267906	     21.39621643	     -7.51524928	    -26.35785463	      3.42381214	     -2.93014548	      2.57871925	    -12.31204714	    -14.23712621	     50.35217202	     90.00000001	      0.00000000	      0.00000000	     16.37466581	    -11.21716750	     26.49961588	     48.08727583	     90.00000001	      0.00000000	      0.00000000
      3.03000000	      4.82780808	     -0.59663533	      3.32397326	     -0.18479691	      0.86672114	     -0.21982148	     13.33634057	     -5.83704802	     -0.45270035	     72.91545140	      1.48224042	      1.27261470	      4.86247969	     -0.19160283	     -7.51505465	     14.69732940	      3.02029656	    -10.54416960	     38.17398497	     -6.51993243	      0.66626173	     20.58020027	     21.28292473	     -7.51505465	    -26.77543463	      3.63228754	     -3.14304014	      2.48548293	    -12.37625679	    -14.29787541	     50.26290407	     90.00000001	      0.00000000	      0.00000000	     16.50642059	    -11.34274289	     26.37838956	     48.07978304	     90.00000001	      0.00000000	      0.00000000
      3.04000000	      4.67921969	     -0.36915996	      3.07037205	     -0.18184459	      0.86576353	     -0.22022683	     14.93800188	     -5.85981022	     -0.76209182	     73.91948050	      0.47668375	      1.29013832	      6.38353572	     -0.57243251	     -7.51482540	     14.72704391	      3.17941889	    -10.83097957	     38.46079931	     -6.39499587	      0.67126758	     21.27624582	     21.38760077	     -7.51482540	    -26.75775936	      3.23518939	     -3.11713708	      2.40708488	    -12.29829592	    -14.57200012	     49.73044218	     90.00000001	      0.00000000	      0.00000000	     16.63659536	    -11.43128604	     26.26978562	     47.82479080	     90.00000001	      0.00000000	      0.00000000
      3.05000000	      4.43467557	     -0.28082441	      3.01760899	     -0.17887208	      0.86468901	     -0.22098824	     16.53651276	     -5.86076292	     -1.28096079	     74.60727179	     -0.36244117	      1.30214254	      7.50748362	     -0.32654158	     -7.51450384	     14.92612284	      3.33666318	    -10.97768369	     38.79850552	     -6.51805456	      0.67716167	     21.67489316	     21.50620836	     -7.51450384	    -26.57129429	      3.11679948	     -3.23608959	      2.31758368	    -12.17547916	    -14.99613223	     49.25200751	     90.00000001	      0.00000000	      0.00000000	     16.71741191	    -11.52618984	     26.13806939	     47.62652972	     90.00000001	      0.00000000	      0.00000000
      3.06000000	      4.53819462	     -0.29381015	      2.99771541	     -0.17606634	      0.86442311	     -0.22174037	     17.65046834	     -5.76699500	     -1.58401510	     74.90426689	     -0.77783265	      1.30732608	      7.92192272	     -0.08586435	     -7.51430292	     14.66142520	      3.35254838	    -10.88415665	     38.97165941	     -6.48237813	      0.68018377	     21.74171601	     21.43458638	     -7.51430292	    -26.86137445	      3.15534371	     -3.31808162	      2.26061639	    -12.19085117	    -15.12167145	     49.10499271	     90.00000001	      0.00000000	      0.00000000	     16.83128071	    -11.63429928	     26.01322319	     47.60221656	     90.00000001	      0.00000000	      0.00000000
      3.07000000	      4.24527226	     -0.16042005	      3.09526034	     -0.17306028	      0.86349333	     -0.22264671	     19.18309386	     -5.88689150	     -3.38339687	     74.96493083	     -2.60269987	      1.30838487	      9.30257728	      1.48349019	     -7.51368635	     14.88402052	      3.58195993	    -10.78042783	     39.27464041	     -6.47373377	      0.68547179	     22.14717272	     21.46071574	     -7.51368635	    -26.58640935	      3.05283563	     -3.58132471	      2.20609595	    -11.96972611	    -15.89754382	     48.43863582	     90.00000001	      0.00000000	      0.00000000	     16.87121717	    -11.67415424	     25.78519597	     47.35261279	     90.00000001	      0.00000000	      0.00000000
      3.08000000	      4.29687387	     -0.05360214	      2.88804357	     -0.17004415	      0.86341647	     -0.22299910	     20.28293669	     -5.85025365	     -3.93579846	     74.75241660	     -3.32635400	      1.30467579	      9.89607064	      1.70662119	     -7.51345889	     14.49777011	      3.66979893	    -10.66129804	     39.18178453	     -6.24653310	      0.68385115	     22.40379875	     21.36117903	     -7.51345889	    -26.76324354	      2.87357436	     -3.50544357	      2.05160496	    -11.96936612	    -15.98766630	     48.17217776	     90.00000001	      0.00000000	      0.00000000	     16.95201776	    -11.76649026	     25.67059404	     47.28588504	     90.00000001	      0.00000000	      0.00000000
      3.09000000	      4.41621983	      0.02538952	      3.12226543	     -0.16692309	      0.86351687	     -0.22402441	     21.11947274	     -6.01384409	     -6.20145315	     74.12039990	     -5.19636828	      1.29364502	     10.82383299	      3.66215932	     -7.51283033	     14.13461173	      3.84628526	    -10.32897691	     39.24605216	     -6.15703444	      0.68497283	     22.51781065	     21.22141760	     -7.51283033	    -26.96923412	      2.91544784	     -3.83406421	      2.04278221	    -11.80770462	    -16.51564539	     47.65386028	     90.00000001	      0.00000000	      0.00000000	     17.01140911	    -11.82341125	     25.44450031	     47.16468334	     90.00000001	      0.00000000	      0.00000000
      3.10000000	      4.56923069	      0.11239648	      3.13096047	     -0.16384250	      0.86385045	     -0.22465950	     21.89584038	     -6.10567971	     -7.63214661	     73.28720866	     -6.34665821	      1.27910309	     11.51819304	      5.00306102	     -7.51216083	     13.60905807	      3.96011361	    -10.08215143	     39.07182284	     -5.96372900	      0.68193195	     22.66317874	     21.12956295	     -7.51216083	    -27.23678858	      2.86632905	     -3.92678345	      1.93659114	    -11.75145805	    -16.77826105	     47.34010151	     90.00000001	      0.00000000	      0.00000000	     17.07695015	    -11.88625261	     25.27425633	     47.14895963	     90.00000001	      0.00000000	      0.00000000
